<mxfile host="app.diagrams.net" agent="Mozilla/5.0 (Macintosh; Intel Mac OS X 10_15_7) AppleWebKit/537.36 (KHTML, like Gecko) Chrome/140.0.0.0 Safari/537.36" version="28.2.4">
  <diagram name="第 1 页" id="CFa5neN3JxGisTMlxspN">
    <mxGraphModel dx="1064" dy="615" grid="1" gridSize="10" guides="1" tooltips="1" connect="1" arrows="1" fold="1" page="1" pageScale="1" pageWidth="827" pageHeight="1169" math="0" shadow="0">
      <root>
        <mxCell id="0" />
        <mxCell id="1" parent="0" />
        <mxCell id="JnytoQ4aI-JfdTSU2bZD-38" value="" style="whiteSpace=wrap;html=1;rounded=1;fillStyle=zigzag-line;" parent="1" vertex="1">
          <mxGeometry x="1730" y="95" width="230" height="210" as="geometry" />
        </mxCell>
        <mxCell id="JnytoQ4aI-JfdTSU2bZD-34" value="" style="whiteSpace=wrap;html=1;rounded=1;fillStyle=zigzag-line;" parent="1" vertex="1">
          <mxGeometry x="1135" y="96" width="230" height="210" as="geometry" />
        </mxCell>
        <mxCell id="JnytoQ4aI-JfdTSU2bZD-1" value="Warehouse Management System" style="text;html=1;align=center;verticalAlign=middle;resizable=0;points=[];autosize=1;strokeColor=none;fillColor=none;fontSize=20;" parent="1" vertex="1">
          <mxGeometry x="254" y="93" width="320" height="40" as="geometry" />
        </mxCell>
        <mxCell id="JnytoQ4aI-JfdTSU2bZD-5" value="" style="edgeStyle=orthogonalEdgeStyle;rounded=0;orthogonalLoop=1;jettySize=auto;html=1;" parent="1" source="JnytoQ4aI-JfdTSU2bZD-2" target="JnytoQ4aI-JfdTSU2bZD-4" edge="1">
          <mxGeometry relative="1" as="geometry" />
        </mxCell>
        <mxCell id="JnytoQ4aI-JfdTSU2bZD-2" value="&amp;nbsp;Receive Order From Upstream" style="rounded=1;whiteSpace=wrap;html=1;" parent="1" vertex="1">
          <mxGeometry x="80" y="180" width="120" height="60" as="geometry" />
        </mxCell>
        <mxCell id="JnytoQ4aI-JfdTSU2bZD-3" value="Inbound Process" style="text;html=1;align=center;verticalAlign=middle;resizable=0;points=[];autosize=1;strokeColor=none;fillColor=none;fontSize=20;" parent="1" vertex="1">
          <mxGeometry x="300" y="290" width="170" height="40" as="geometry" />
        </mxCell>
        <mxCell id="JnytoQ4aI-JfdTSU2bZD-7" value="" style="edgeStyle=orthogonalEdgeStyle;rounded=0;orthogonalLoop=1;jettySize=auto;html=1;" parent="1" source="JnytoQ4aI-JfdTSU2bZD-4" target="JnytoQ4aI-JfdTSU2bZD-6" edge="1">
          <mxGeometry relative="1" as="geometry" />
        </mxCell>
        <mxCell id="JnytoQ4aI-JfdTSU2bZD-4" value="Receive Goods" style="whiteSpace=wrap;html=1;rounded=1;" parent="1" vertex="1">
          <mxGeometry x="280" y="180" width="120" height="60" as="geometry" />
        </mxCell>
        <mxCell id="JnytoQ4aI-JfdTSU2bZD-9" value="" style="edgeStyle=orthogonalEdgeStyle;rounded=0;orthogonalLoop=1;jettySize=auto;html=1;" parent="1" source="JnytoQ4aI-JfdTSU2bZD-6" target="JnytoQ4aI-JfdTSU2bZD-8" edge="1">
          <mxGeometry relative="1" as="geometry" />
        </mxCell>
        <mxCell id="JnytoQ4aI-JfdTSU2bZD-6" value="Check Goods Quality" style="whiteSpace=wrap;html=1;rounded=1;" parent="1" vertex="1">
          <mxGeometry x="472" y="180" width="138" height="60" as="geometry" />
        </mxCell>
        <mxCell id="JnytoQ4aI-JfdTSU2bZD-8" value="Shlef /&amp;nbsp;&lt;span style=&quot;background-color: transparent; color: light-dark(rgb(0, 0, 0), rgb(255, 255, 255));&quot;&gt;Putaway&lt;/span&gt;" style="whiteSpace=wrap;html=1;rounded=1;" parent="1" vertex="1">
          <mxGeometry x="681" y="180" width="120" height="60" as="geometry" />
        </mxCell>
        <mxCell id="JnytoQ4aI-JfdTSU2bZD-10" value="Outbound Process" style="text;html=1;align=center;verticalAlign=middle;resizable=0;points=[];autosize=1;strokeColor=none;fillColor=none;fontSize=20;" parent="1" vertex="1">
          <mxGeometry x="290" y="510" width="190" height="40" as="geometry" />
        </mxCell>
        <mxCell id="JnytoQ4aI-JfdTSU2bZD-11" value="" style="edgeStyle=orthogonalEdgeStyle;rounded=0;orthogonalLoop=1;jettySize=auto;html=1;" parent="1" source="JnytoQ4aI-JfdTSU2bZD-12" target="JnytoQ4aI-JfdTSU2bZD-14" edge="1">
          <mxGeometry relative="1" as="geometry" />
        </mxCell>
        <mxCell id="JnytoQ4aI-JfdTSU2bZD-12" value="Receive Order From Upstream System&lt;div&gt;(OMS)&lt;/div&gt;" style="rounded=1;whiteSpace=wrap;html=1;" parent="1" vertex="1">
          <mxGeometry x="80" y="410" width="120" height="60" as="geometry" />
        </mxCell>
        <mxCell id="JnytoQ4aI-JfdTSU2bZD-13" value="" style="edgeStyle=orthogonalEdgeStyle;rounded=0;orthogonalLoop=1;jettySize=auto;html=1;" parent="1" source="JnytoQ4aI-JfdTSU2bZD-14" target="JnytoQ4aI-JfdTSU2bZD-16" edge="1">
          <mxGeometry relative="1" as="geometry" />
        </mxCell>
        <mxCell id="JnytoQ4aI-JfdTSU2bZD-14" value="Match Inventory" style="whiteSpace=wrap;html=1;rounded=1;" parent="1" vertex="1">
          <mxGeometry x="280" y="410" width="120" height="60" as="geometry" />
        </mxCell>
        <mxCell id="JnytoQ4aI-JfdTSU2bZD-15" value="" style="edgeStyle=orthogonalEdgeStyle;rounded=0;orthogonalLoop=1;jettySize=auto;html=1;" parent="1" source="JnytoQ4aI-JfdTSU2bZD-16" target="JnytoQ4aI-JfdTSU2bZD-17" edge="1">
          <mxGeometry relative="1" as="geometry" />
        </mxCell>
        <mxCell id="JnytoQ4aI-JfdTSU2bZD-16" value="Consolidate Outbound Orders&lt;div&gt;Pick-Up Worksheet&lt;/div&gt;" style="whiteSpace=wrap;html=1;rounded=1;" parent="1" vertex="1">
          <mxGeometry x="481" y="410" width="120" height="60" as="geometry" />
        </mxCell>
        <mxCell id="JnytoQ4aI-JfdTSU2bZD-19" value="" style="edgeStyle=orthogonalEdgeStyle;rounded=0;orthogonalLoop=1;jettySize=auto;html=1;" parent="1" source="JnytoQ4aI-JfdTSU2bZD-17" target="JnytoQ4aI-JfdTSU2bZD-18" edge="1">
          <mxGeometry relative="1" as="geometry" />
        </mxCell>
        <mxCell id="JnytoQ4aI-JfdTSU2bZD-17" value="Pick Up SKU one by one" style="whiteSpace=wrap;html=1;rounded=1;" parent="1" vertex="1">
          <mxGeometry x="681" y="410" width="120" height="60" as="geometry" />
        </mxCell>
        <mxCell id="JnytoQ4aI-JfdTSU2bZD-21" value="" style="edgeStyle=orthogonalEdgeStyle;rounded=0;orthogonalLoop=1;jettySize=auto;html=1;" parent="1" source="JnytoQ4aI-JfdTSU2bZD-18" target="JnytoQ4aI-JfdTSU2bZD-20" edge="1">
          <mxGeometry relative="1" as="geometry" />
        </mxCell>
        <mxCell id="JnytoQ4aI-JfdTSU2bZD-18" value="Re-sort the SKUs" style="whiteSpace=wrap;html=1;rounded=1;" parent="1" vertex="1">
          <mxGeometry x="881" y="410" width="120" height="60" as="geometry" />
        </mxCell>
        <mxCell id="JnytoQ4aI-JfdTSU2bZD-23" value="" style="edgeStyle=orthogonalEdgeStyle;rounded=0;orthogonalLoop=1;jettySize=auto;html=1;" parent="1" source="JnytoQ4aI-JfdTSU2bZD-20" target="JnytoQ4aI-JfdTSU2bZD-22" edge="1">
          <mxGeometry relative="1" as="geometry" />
        </mxCell>
        <mxCell id="JnytoQ4aI-JfdTSU2bZD-20" value="Package" style="whiteSpace=wrap;html=1;rounded=1;" parent="1" vertex="1">
          <mxGeometry x="1081" y="410" width="120" height="60" as="geometry" />
        </mxCell>
        <mxCell id="JnytoQ4aI-JfdTSU2bZD-25" value="" style="edgeStyle=orthogonalEdgeStyle;rounded=0;orthogonalLoop=1;jettySize=auto;html=1;" parent="1" source="JnytoQ4aI-JfdTSU2bZD-22" target="JnytoQ4aI-JfdTSU2bZD-24" edge="1">
          <mxGeometry relative="1" as="geometry" />
        </mxCell>
        <mxCell id="JnytoQ4aI-JfdTSU2bZD-22" value="Dispatch Goods" style="whiteSpace=wrap;html=1;rounded=1;" parent="1" vertex="1">
          <mxGeometry x="1281" y="410" width="120" height="60" as="geometry" />
        </mxCell>
        <mxCell id="JnytoQ4aI-JfdTSU2bZD-24" value="Deliver to Customer" style="whiteSpace=wrap;html=1;rounded=1;" parent="1" vertex="1">
          <mxGeometry x="1481" y="410" width="120" height="60" as="geometry" />
        </mxCell>
        <mxCell id="JnytoQ4aI-JfdTSU2bZD-26" value="Inventory Managment" style="text;html=1;align=center;verticalAlign=middle;resizable=0;points=[];autosize=1;strokeColor=none;fillColor=none;fontSize=20;" parent="1" vertex="1">
          <mxGeometry x="269" y="760" width="220" height="40" as="geometry" />
        </mxCell>
        <mxCell id="JnytoQ4aI-JfdTSU2bZD-27" value="Inventory Checking" style="rounded=1;whiteSpace=wrap;html=1;" parent="1" vertex="1">
          <mxGeometry x="80" y="630" width="120" height="60" as="geometry" />
        </mxCell>
        <mxCell id="JnytoQ4aI-JfdTSU2bZD-28" value="Inventory Query" style="rounded=1;whiteSpace=wrap;html=1;" parent="1" vertex="1">
          <mxGeometry x="280" y="630" width="120" height="60" as="geometry" />
        </mxCell>
        <mxCell id="JnytoQ4aI-JfdTSU2bZD-32" value="" style="edgeStyle=orthogonalEdgeStyle;rounded=0;orthogonalLoop=1;jettySize=auto;html=1;exitX=1;exitY=0.5;exitDx=0;exitDy=0;" parent="1" source="JnytoQ4aI-JfdTSU2bZD-30" target="JnytoQ4aI-JfdTSU2bZD-31" edge="1">
          <mxGeometry relative="1" as="geometry">
            <mxPoint x="1125" y="200" as="sourcePoint" />
          </mxGeometry>
        </mxCell>
        <mxCell id="JnytoQ4aI-JfdTSU2bZD-33" value="Push" style="edgeLabel;html=1;align=center;verticalAlign=middle;resizable=0;points=[];" parent="JnytoQ4aI-JfdTSU2bZD-32" vertex="1" connectable="0">
          <mxGeometry x="-0.255" relative="1" as="geometry">
            <mxPoint x="-14" y="-1" as="offset" />
          </mxGeometry>
        </mxCell>
        <mxCell id="JnytoQ4aI-JfdTSU2bZD-30" value="Ali Express / SHEIN" style="rounded=1;whiteSpace=wrap;html=1;" parent="1" vertex="1">
          <mxGeometry x="846" y="170" width="190" height="60" as="geometry" />
        </mxCell>
        <mxCell id="JnytoQ4aI-JfdTSU2bZD-41" style="edgeStyle=orthogonalEdgeStyle;rounded=0;orthogonalLoop=1;jettySize=auto;html=1;" parent="1" source="JnytoQ4aI-JfdTSU2bZD-31" target="JnytoQ4aI-JfdTSU2bZD-40" edge="1">
          <mxGeometry relative="1" as="geometry" />
        </mxCell>
        <mxCell id="JnytoQ4aI-JfdTSU2bZD-31" value="Receive Order From E-Commence Platform" style="whiteSpace=wrap;html=1;rounded=1;" parent="1" vertex="1">
          <mxGeometry x="1180" y="170" width="140" height="60" as="geometry" />
        </mxCell>
        <mxCell id="JnytoQ4aI-JfdTSU2bZD-35" value="OMS in CN" style="text;html=1;align=center;verticalAlign=middle;resizable=0;points=[];autosize=1;strokeColor=none;fillColor=none;" parent="1" vertex="1">
          <mxGeometry x="1201" y="66" width="80" height="30" as="geometry" />
        </mxCell>
        <mxCell id="JnytoQ4aI-JfdTSU2bZD-36" value="Receive Order From OMS" style="whiteSpace=wrap;html=1;rounded=1;" parent="1" vertex="1">
          <mxGeometry x="1778" y="170" width="120" height="60" as="geometry" />
        </mxCell>
        <mxCell id="JnytoQ4aI-JfdTSU2bZD-39" value="WMS US" style="text;html=1;align=center;verticalAlign=middle;resizable=0;points=[];autosize=1;strokeColor=none;fillColor=none;" parent="1" vertex="1">
          <mxGeometry x="1803" y="65" width="70" height="30" as="geometry" />
        </mxCell>
        <mxCell id="JnytoQ4aI-JfdTSU2bZD-42" style="edgeStyle=orthogonalEdgeStyle;rounded=0;orthogonalLoop=1;jettySize=auto;html=1;entryX=0;entryY=0.5;entryDx=0;entryDy=0;" parent="1" source="JnytoQ4aI-JfdTSU2bZD-40" target="JnytoQ4aI-JfdTSU2bZD-36" edge="1">
          <mxGeometry relative="1" as="geometry" />
        </mxCell>
        <mxCell id="JnytoQ4aI-JfdTSU2bZD-40" value="Dispatch Service&lt;div&gt;(HTTP)&lt;/div&gt;" style="whiteSpace=wrap;html=1;rounded=1;" parent="1" vertex="1">
          <mxGeometry x="1470" y="170" width="120" height="60" as="geometry" />
        </mxCell>
        <mxCell id="JnytoQ4aI-JfdTSU2bZD-43" value="" style="whiteSpace=wrap;html=1;rounded=1;fillStyle=zigzag-line;" parent="1" vertex="1">
          <mxGeometry x="2073" y="60" width="350" height="300" as="geometry" />
        </mxCell>
        <mxCell id="JnytoQ4aI-JfdTSU2bZD-44" value="Gateway App&lt;div&gt;(Auth / Routing / Filtering)&lt;/div&gt;" style="whiteSpace=wrap;html=1;rounded=1;" parent="1" vertex="1">
          <mxGeometry x="2103" y="91" width="290" height="60" as="geometry" />
        </mxCell>
        <mxCell id="JnytoQ4aI-JfdTSU2bZD-46" value="Inbound&lt;div&gt;（入库）&lt;/div&gt;" style="whiteSpace=wrap;html=1;rounded=1;" parent="1" vertex="1">
          <mxGeometry x="2103" y="168" width="60" height="60" as="geometry" />
        </mxCell>
        <mxCell id="JnytoQ4aI-JfdTSU2bZD-47" value="Outbound&lt;div&gt;（出库）&lt;/div&gt;" style="whiteSpace=wrap;html=1;rounded=1;" parent="1" vertex="1">
          <mxGeometry x="2333" y="168" width="60" height="60" as="geometry" />
        </mxCell>
        <mxCell id="JnytoQ4aI-JfdTSU2bZD-48" value="Inventory&lt;div&gt;（库存）&lt;/div&gt;" style="whiteSpace=wrap;html=1;rounded=1;" parent="1" vertex="1">
          <mxGeometry x="2218" y="168" width="60" height="60" as="geometry" />
        </mxCell>
        <mxCell id="JnytoQ4aI-JfdTSU2bZD-51" value="Intelligent&lt;div&gt;(Recommandation)&lt;/div&gt;" style="whiteSpace=wrap;html=1;rounded=1;" parent="1" vertex="1">
          <mxGeometry x="2103" y="258" width="290" height="60" as="geometry" />
        </mxCell>
        <mxCell id="JnytoQ4aI-JfdTSU2bZD-54" value="" style="edgeStyle=orthogonalEdgeStyle;rounded=0;orthogonalLoop=1;jettySize=auto;html=1;" parent="1" source="JnytoQ4aI-JfdTSU2bZD-52" target="JnytoQ4aI-JfdTSU2bZD-53" edge="1">
          <mxGeometry relative="1" as="geometry" />
        </mxCell>
        <mxCell id="JnytoQ4aI-JfdTSU2bZD-55" style="edgeStyle=orthogonalEdgeStyle;rounded=0;orthogonalLoop=1;jettySize=auto;html=1;" parent="1" source="JnytoQ4aI-JfdTSU2bZD-52" edge="1">
          <mxGeometry relative="1" as="geometry">
            <mxPoint x="2698" y="217" as="targetPoint" />
          </mxGeometry>
        </mxCell>
        <mxCell id="JnytoQ4aI-JfdTSU2bZD-59" style="edgeStyle=orthogonalEdgeStyle;rounded=0;orthogonalLoop=1;jettySize=auto;html=1;entryX=0.5;entryY=0;entryDx=0;entryDy=0;" parent="1" source="JnytoQ4aI-JfdTSU2bZD-52" target="JnytoQ4aI-JfdTSU2bZD-58" edge="1">
          <mxGeometry relative="1" as="geometry" />
        </mxCell>
        <mxCell id="JnytoQ4aI-JfdTSU2bZD-52" value="Gateway App&lt;div&gt;(Auth / Routing / Filtering)&lt;/div&gt;" style="whiteSpace=wrap;html=1;rounded=1;" parent="1" vertex="1">
          <mxGeometry x="2553" y="82" width="290" height="60" as="geometry" />
        </mxCell>
        <mxCell id="JnytoQ4aI-JfdTSU2bZD-53" value="Shiro(Auth)" style="whiteSpace=wrap;html=1;rounded=1;" parent="1" vertex="1">
          <mxGeometry x="2511" y="217" width="120" height="60" as="geometry" />
        </mxCell>
        <mxCell id="JnytoQ4aI-JfdTSU2bZD-56" value="Ribbon" style="whiteSpace=wrap;html=1;rounded=1;" parent="1" vertex="1">
          <mxGeometry x="2643" y="217" width="120" height="60" as="geometry" />
        </mxCell>
        <mxCell id="JnytoQ4aI-JfdTSU2bZD-58" value="Nacos" style="whiteSpace=wrap;html=1;rounded=1;" parent="1" vertex="1">
          <mxGeometry x="2778" y="217" width="120" height="60" as="geometry" />
        </mxCell>
        <mxCell id="uKOPW7PVtymZnf6Dtj10-1" value="WMS（Warehouse Management System）" style="text;html=1;align=center;verticalAlign=middle;resizable=0;points=[];autosize=1;strokeColor=none;fillColor=none;" parent="1" vertex="1">
          <mxGeometry x="2118" y="30" width="250" height="30" as="geometry" />
        </mxCell>
        <mxCell id="uKOPW7PVtymZnf6Dtj10-9" style="edgeStyle=orthogonalEdgeStyle;rounded=0;orthogonalLoop=1;jettySize=auto;html=1;exitX=1;exitY=0.5;exitDx=0;exitDy=0;entryX=0;entryY=0.5;entryDx=0;entryDy=0;" parent="1" source="uKOPW7PVtymZnf6Dtj10-3" target="uKOPW7PVtymZnf6Dtj10-5" edge="1">
          <mxGeometry relative="1" as="geometry" />
        </mxCell>
        <mxCell id="uKOPW7PVtymZnf6Dtj10-3" value="预约" style="whiteSpace=wrap;html=1;rounded=1;" parent="1" vertex="1">
          <mxGeometry x="1850" y="540" width="120" height="60" as="geometry" />
        </mxCell>
        <mxCell id="uKOPW7PVtymZnf6Dtj10-10" style="edgeStyle=orthogonalEdgeStyle;rounded=0;orthogonalLoop=1;jettySize=auto;html=1;exitX=1;exitY=0.5;exitDx=0;exitDy=0;" parent="1" source="uKOPW7PVtymZnf6Dtj10-5" target="uKOPW7PVtymZnf6Dtj10-6" edge="1">
          <mxGeometry relative="1" as="geometry" />
        </mxCell>
        <mxCell id="uKOPW7PVtymZnf6Dtj10-5" value="到货" style="whiteSpace=wrap;html=1;rounded=1;" parent="1" vertex="1">
          <mxGeometry x="2015" y="540" width="120" height="60" as="geometry" />
        </mxCell>
        <mxCell id="uKOPW7PVtymZnf6Dtj10-11" style="edgeStyle=orthogonalEdgeStyle;rounded=0;orthogonalLoop=1;jettySize=auto;html=1;exitX=1;exitY=0.5;exitDx=0;exitDy=0;entryX=0;entryY=0.5;entryDx=0;entryDy=0;" parent="1" source="uKOPW7PVtymZnf6Dtj10-6" target="uKOPW7PVtymZnf6Dtj10-7" edge="1">
          <mxGeometry relative="1" as="geometry" />
        </mxCell>
        <mxCell id="uKOPW7PVtymZnf6Dtj10-6" value="收货" style="whiteSpace=wrap;html=1;rounded=1;" parent="1" vertex="1">
          <mxGeometry x="2173" y="540" width="120" height="60" as="geometry" />
        </mxCell>
        <mxCell id="uKOPW7PVtymZnf6Dtj10-12" style="edgeStyle=orthogonalEdgeStyle;rounded=0;orthogonalLoop=1;jettySize=auto;html=1;exitX=1;exitY=0.5;exitDx=0;exitDy=0;entryX=0;entryY=0.5;entryDx=0;entryDy=0;" parent="1" source="uKOPW7PVtymZnf6Dtj10-7" target="uKOPW7PVtymZnf6Dtj10-8" edge="1">
          <mxGeometry relative="1" as="geometry" />
        </mxCell>
        <mxCell id="uKOPW7PVtymZnf6Dtj10-7" value="查验" style="whiteSpace=wrap;html=1;rounded=1;" parent="1" vertex="1">
          <mxGeometry x="2335" y="540" width="120" height="60" as="geometry" />
        </mxCell>
        <mxCell id="uKOPW7PVtymZnf6Dtj10-8" value="上架" style="whiteSpace=wrap;html=1;rounded=1;" parent="1" vertex="1">
          <mxGeometry x="2485" y="540" width="120" height="60" as="geometry" />
        </mxCell>
      </root>
    </mxGraphModel>
  </diagram>
</mxfile>
